<svg xmlns="http://www.w3.org/2000/svg" xmlns:xlink="http://www.w3.org/1999/xlink" width="1024" zoomAndPan="magnify" viewBox="0 0 768 767.999994" height="1024" preserveAspectRatio="xMidYMid meet" version="1.0"><rect x="-76.8" width="921.6" fill="#ffffff" y="-76.799999" height="921.599993" fill-opacity="1"/><rect x="-76.8" width="921.6" fill="#ffffff" y="-76.799999" height="921.599993" fill-opacity="1"/><path fill="#f2183c" d="M 767.941406 383.992188 C 767.941406 596.050781 596.03125 767.960938 383.972656 767.960938 C 171.910156 767.960938 0 596.050781 0 383.992188 C 0 171.929688 171.910156 0.0195312 383.972656 0.0195312 C 596.03125 0.0195312 767.941406 171.929688 767.941406 383.992188 " fill-opacity="1" fill-rule="nonzero"/><path fill="#ffffff" d="M 430.015625 531.8125 L 337.175781 531.8125 C 333.851562 531.8125 331.265625 534.71875 331.65625 538.023438 C 338.199219 598.367188 429 598.351562 435.535156 538.019531 C 435.925781 534.71875 433.339844 531.8125 430.015625 531.8125 " fill-opacity="1" fill-rule="nonzero"/><path fill="#ffffff" d="M 545.890625 501.871094 C 537.714844 488.851562 530.585938 475.261719 524.429688 461.246094 C 484.617188 372.015625 542.722656 279.253906 418.8125 234.929688 C 423.753906 199.550781 403.800781 184.945312 383.972656 184.707031 C 364.140625 184.945312 344.1875 199.550781 349.132812 234.929688 C 225.21875 279.253906 283.328125 372.015625 243.511719 461.246094 C 237.355469 475.261719 230.226562 488.851562 222.054688 501.871094 C 218.21875 508.015625 222.632812 515.980469 229.878906 515.980469 L 538.066406 515.980469 C 545.308594 515.980469 549.726562 508.015625 545.890625 501.871094 " fill-opacity="1" fill-rule="nonzero"/></svg>