<svg class="w-24 h-24" viewBox="0 0 100 100" xmlns="http://www.w3.org/2000/svg">
                <defs>
                    <linearGradient id="grad1" x1="0%" y1="0%" x2="100%" y2="100%">
                        <stop offset="0%" style="stop-color:#3b82f6;stop-opacity:1" />
                        <stop offset="100%" style="stop-color:#14b8a6;stop-opacity:1" />
                    </linearGradient>
                        <linearGradient id="grad2" x1="0%" y1="0%" x2="100%" y2="100%">
                        <stop offset="0%" style="stop-color:#6366f1;stop-opacity:1" />
                        <stop offset="100%" style="stop-color:#8b5cf6;stop-opacity:1" />
                    </linearGradient>
                        <linearGradient id="grad3" x1="0%" y1="0%" x2="100%" y2="100%">
                        <stop offset="0%" style="stop-color:#ec4899;stop-opacity:1" />
                        <stop offset="100%" style="stop-color:#f43f5e;stop-opacity:1" />
                    </linearGradient>
                        <linearGradient id="grad4" x1="0%" y1="0%" x2="100%" y2="100%">
                        <stop offset="0%" style="stop-color:#f97316;stop-opacity:1" />
                        <stop offset="100%" style="stop-color:#eab308;stop-opacity:1" />
                    </linearGradient>
                </defs>
                <path d="M50 0 A50 50 0 0 1 93.3 25 L50 50 Z" fill="url(#grad1)"/>
                <path d="M93.3 25 A50 50 0 0 1 93.3 75 L50 50 Z" fill="url(#grad2)"/>
                <path d="M93.3 75 A50 50 0 0 1 50 100 L50 50 Z" fill="url(#grad3)"/>
                <path d="M50 100 A50 50 0 0 1 6.7 75 L50 50 Z" fill="url(#grad4)"/>
                    <path d="M6.7 75 A50 50 0 0 1 6.7 25 L50 50 Z" fill="url(#grad1)" opacity="0.7"/>
                    <path d="M6.7 25 A50 50 0 0 1 50 0 L50 50 Z" fill="url(#grad2)" opacity="0.7"/>
            </svg>