<svg xmlns="http://www.w3.org/2000/svg" xmlns:xlink="http://www.w3.org/1999/xlink" width="250" zoomAndPan="magnify" viewBox="0 0 187.5 187.499992" height="250" preserveAspectRatio="xMidYMid meet" version="1.0"><defs><clipPath id="876e969751"><path d="M 52.273438 97 L 134.792969 97 L 134.792969 102.625 L 52.273438 102.625 Z M 52.273438 97 " clip-rule="nonzero"/></clipPath><clipPath id="a3486f7c59"><path d="M 81 131 L 106 131 L 106 135.660156 L 81 135.660156 Z M 81 131 " clip-rule="nonzero"/></clipPath><clipPath id="4e39c7e811"><path d="M 52.273438 51.273438 L 134.792969 51.273438 L 134.792969 92.640625 L 52.273438 92.640625 Z M 52.273438 51.273438 " clip-rule="nonzero"/></clipPath></defs><path fill="#ffffff" d="M 0 0 L 187 0 L 187 187 L 0 187 Z M 0 0 " fill-opacity="1" fill-rule="nonzero"/><path fill="#ec6b25" d="M 0 0 L 187 0 L 187 187 L 0 187 Z M 0 0 " fill-opacity="1" fill-rule="nonzero"/><g clip-path="url(#876e969751)"><path fill="#ffffff" d="M 52.273438 97.636719 L 52.273438 102.199219 L 134.789062 102.199219 L 134.789062 97.636719 L 52.273438 97.636719 " fill-opacity="1" fill-rule="nonzero"/></g><path fill="#ffffff" d="M 53.628906 110.570312 L 133.433594 110.570312 L 133.433594 106.007812 L 53.628906 106.007812 L 53.628906 110.570312 " fill-opacity="1" fill-rule="nonzero"/><path fill="#ffffff" d="M 57.796875 118.9375 L 129.277344 118.9375 L 129.277344 114.375 L 57.796875 114.375 L 57.796875 118.9375 " fill-opacity="1" fill-rule="nonzero"/><path fill="#ffffff" d="M 66.277344 127.308594 L 120.792969 127.308594 L 120.792969 122.742188 L 66.277344 122.742188 L 66.277344 127.308594 " fill-opacity="1" fill-rule="nonzero"/><g clip-path="url(#a3486f7c59)"><path fill="#ffffff" d="M 81.539062 135.660156 L 105.535156 135.660156 L 105.535156 131.097656 L 81.539062 131.097656 L 81.539062 135.660156 " fill-opacity="1" fill-rule="nonzero"/></g><g clip-path="url(#4e39c7e811)"><path fill="#ffffff" d="M 93.535156 51.277344 C 70.929688 51.277344 52.542969 69.671875 52.542969 92.269531 L 134.53125 92.269531 C 134.527344 69.671875 116.140625 51.277344 93.535156 51.277344 " fill-opacity="1" fill-rule="nonzero"/></g></svg>