<svg class="w-32 h-32" viewBox="0 0 100 100" xmlns="http://www.w3.org/2000/svg">
    <path d="M50 0 A50 50 0 0 1 93.3 25 L50 50 Z" fill="url(#grad1)"/>
    <path d="M93.3 25 A50 50 0 0 1 93.3 75 L50 50 Z" fill="url(#grad2)"/>
    <path d="M93.3 75 A50 50 0 0 1 50 100 L50 50 Z" fill="url(#grad3)"/>
    <path d="M50 100 A50 50 0 0 1 6.7 75 L50 50 Z" fill="url(#grad4)"/>
    <path d="M6.7 75 A50 50 0 0 1 6.7 25 L50 50 Z" fill="url(#grad1)" opacity="0.7"/>
    <path d="M6.7 25 A50 50 0 0 1 50 0 L50 50 Z" fill="url(#grad2)" opacity="0.7"/>
</svg>