<svg xmlns="http://www.w3.org/2000/svg" xmlns:xlink="http://www.w3.org/1999/xlink" width="250" zoomAndPan="magnify" viewBox="0 0 187.5 187.499992" height="250" preserveAspectRatio="xMidYMid meet" version="1.0"><defs><clipPath id="b5f5b7ecfc"><path d="M 46.1875 98 L 140.824219 98 L 140.824219 103.976562 L 46.1875 103.976562 Z M 46.1875 98 " clip-rule="nonzero"/></clipPath><clipPath id="44ca0288fb"><path d="M 79 136 L 108 136 L 108 141.890625 L 79 141.890625 Z M 79 136 " clip-rule="nonzero"/></clipPath><clipPath id="585b461911"><path d="M 46.1875 45.042969 L 140.824219 45.042969 L 140.824219 92.515625 L 46.1875 92.515625 Z M 46.1875 45.042969 " clip-rule="nonzero"/></clipPath></defs><path fill="#ffffff" d="M 0 0 L 187 0 L 187 187 L 0 187 Z M 0 0 " fill-opacity="1" fill-rule="nonzero"/><path fill="#ffffff" d="M 0 0 L 187 0 L 187 187 L 0 187 Z M 0 0 " fill-opacity="1" fill-rule="nonzero"/><g clip-path="url(#b5f5b7ecfc)"><path fill="#ec6b25" d="M 46.1875 98.253906 L 46.1875 103.488281 L 140.886719 103.488281 L 140.886719 98.253906 L 46.1875 98.253906 " fill-opacity="1" fill-rule="nonzero"/></g><path fill="#ec6b25" d="M 47.738281 113.09375 L 139.332031 113.09375 L 139.332031 107.855469 L 47.738281 107.855469 L 47.738281 113.09375 " fill-opacity="1" fill-rule="nonzero"/><path fill="#ec6b25" d="M 52.523438 122.699219 L 134.5625 122.699219 L 134.5625 117.460938 L 52.523438 117.460938 L 52.523438 122.699219 " fill-opacity="1" fill-rule="nonzero"/><path fill="#ec6b25" d="M 62.257812 132.304688 L 124.820312 132.304688 L 124.820312 127.066406 L 62.257812 127.066406 L 62.257812 132.304688 " fill-opacity="1" fill-rule="nonzero"/><g clip-path="url(#44ca0288fb)"><path fill="#ec6b25" d="M 79.769531 141.890625 L 107.3125 141.890625 L 107.3125 136.652344 L 79.769531 136.652344 L 79.769531 141.890625 " fill-opacity="1" fill-rule="nonzero"/></g><g clip-path="url(#585b461911)"><path fill="#ec6b25" d="M 93.539062 45.046875 C 67.59375 45.046875 46.492188 66.15625 46.492188 92.09375 L 140.589844 92.09375 C 140.585938 66.15625 119.480469 45.046875 93.539062 45.046875 " fill-opacity="1" fill-rule="nonzero"/></g></svg>